<?xml version="1.0" standalone="no"?>
<!DOCTYPE svg PUBLIC "-//W3C//DTD SVG 20010904//EN"
 "http://www.w3.org/TR/2001/REC-SVG-20010904/DTD/svg10.dtd">
<svg version="1.0" xmlns="http://www.w3.org/2000/svg"
 width="1198.000000pt" height="320.000000pt" viewBox="0 0 1198.000000 320.000000"
 preserveAspectRatio="xMidYMid meet">

<g transform="translate(0.000000,320.000000) scale(0.100000,-0.100000)"
fill="#204a79" stroke="none">
<path d="M76 3181 c-16 -11 -38 -34 -50 -53 l-21 -33 0 -1490 0 -1490 21 -34
c30 -46 79 -73 134 -74 81 -1 43 -35 623 552 153 154 281 281 285 281 4 0 38
-33 76 -73 211 -221 725 -731 751 -744 71 -38 177 -6 210 64 21 44 23 1415 1
1466 -18 44 -43 64 -98 78 -62 17 -128 -7 -163 -59 l-25 -37 0 -497 c0 -274
-4 -498 -8 -498 -5 0 -53 46 -108 102 -388 401 -513 527 -541 547 -39 29 -122
33 -168 9 -16 -9 -174 -161 -350 -337 -176 -177 -323 -321 -327 -321 -5 0 -7
298 -6 663 l3 662 640 5 c584 5 645 7 695 24 143 47 278 147 364 270 54 77 83
147 102 243 56 297 -81 585 -345 722 -139 72 -125 71 -939 71 -699 0 -728 -1
-756 -19z m1536 -303 c69 -32 135 -99 174 -176 27 -52 29 -66 29 -162 0 -99
-2 -109 -33 -172 -39 -80 -111 -148 -192 -181 -55 -22 -57 -22 -665 -22 l-610
0 -3 373 -2 373 622 -3 623 -3 57 -27z"/>
<path d="M5060 2225 l0 -115 110 0 110 0 0 115 0 115 -110 0 -110 0 0 -115z"/>
<path d="M9150 1770 l0 -571 363 3 364 3 41 28 c23 15 54 46 69 69 l28 41 3
266 c2 178 0 279 -8 304 -15 51 -84 119 -136 135 -27 8 -118 12 -268 12 l-226
0 0 140 0 140 -115 0 -115 0 0 -570z m640 -140 l0 -200 -205 0 -205 0 0 200 0
200 205 0 205 0 0 -200z"/>
<path d="M10550 2225 l0 -115 110 0 110 0 0 115 0 115 -110 0 -110 0 0 -115z"/>
<path d="M11540 2200 l0 -140 -227 0 c-134 0 -245 -5 -268 -11 -61 -17 -130
-93 -144 -158 -14 -66 -14 -454 0 -519 13 -61 66 -127 123 -153 37 -17 73 -19
394 -19 l352 0 0 570 0 570 -115 0 -115 0 0 -140z m0 -570 l0 -200 -210 0
-210 0 0 200 0 200 210 0 210 0 0 -200z"/>
<path d="M2295 2125 c-51 -18 -101 -72 -115 -124 -38 -142 110 -272 242 -213
85 37 127 110 113 199 -8 53 -53 109 -110 134 -48 22 -77 23 -130 4z"/>
<path d="M3000 1460 l0 -600 115 0 115 0 0 169 0 170 248 3 249 3 41 28 c23
15 54 46 69 69 l28 41 3 266 c2 178 0 279 -8 304 -15 51 -84 119 -136 135 -29
8 -142 12 -383 12 l-341 0 0 -600z m640 170 l0 -200 -205 0 -205 0 0 200 0
200 205 0 205 0 0 -200z"/>
<path d="M4152 2047 c-48 -18 -99 -63 -122 -107 -19 -36 -20 -59 -20 -310 0
-250 2 -274 20 -309 24 -48 83 -98 130 -111 19 -6 150 -10 290 -10 281 0 303
4 363 66 60 60 62 67 65 336 4 297 -2 332 -72 396 -24 22 -61 45 -82 51 -55
15 -529 13 -572 -2z m498 -417 l0 -200 -210 0 -210 0 0 200 0 200 210 0 210 0
0 -200z"/>
<path d="M5060 1630 l0 -430 110 0 110 0 0 430 0 430 -110 0 -110 0 0 -430z"/>
<path d="M5490 1630 l0 -430 115 0 115 0 0 315 0 315 205 0 205 0 0 -315 0
-315 115 0 115 0 0 347 c0 331 -1 349 -21 390 -25 51 -76 96 -128 112 -26 7
-153 11 -380 11 l-341 0 0 -430z"/>
<path d="M6576 1923 c29 -76 105 -268 168 -428 l114 -290 87 0 88 0 107 248
c59 136 109 249 111 251 2 3 56 -110 119 -250 l115 -254 86 0 87 0 160 428
160 427 -115 3 c-64 1 -118 1 -120 -2 -4 -4 -142 -360 -169 -435 -3 -8 -51 86
-108 210 l-103 224 -110 3 -110 3 -12 -28 c-7 -15 -49 -111 -93 -213 -44 -102
-83 -188 -87 -193 -4 -4 -48 91 -97 210 l-90 218 -121 3 -121 3 54 -138z"/>
<path d="M8242 2047 c-48 -18 -99 -63 -122 -107 -19 -36 -20 -59 -20 -310 0
-250 2 -274 20 -309 24 -48 83 -98 130 -111 20 -6 186 -10 378 -10 l343 0 -3
113 -3 112 -323 3 -323 2 3 43 3 42 323 3 322 2 0 168 c0 207 -11 252 -74 310
-24 22 -61 45 -82 51 -55 15 -529 13 -572 -2z m498 -277 l0 -60 -207 2 -208 3
-3 58 -3 57 211 0 210 0 0 -60z"/>
<path d="M10550 1630 l0 -430 110 0 110 0 0 430 0 430 -110 0 -110 0 0 -430z"/>
<path d="M10170 1315 l0 -115 115 0 116 0 -3 113 -3 112 -112 3 -113 3 0 -116z"/>
</g>
</svg>
