<?xml version="1.0" standalone="no"?>
<!DOCTYPE svg PUBLIC "-//W3C//DTD SVG 20010904//EN"
 "http://www.w3.org/TR/2001/REC-SVG-20010904/DTD/svg10.dtd">
<svg version="1.0" xmlns="http://www.w3.org/2000/svg"
 width="2000.000000pt" height="2000.000000pt" viewBox="0 0 2000.000000 2000.000000"
 preserveAspectRatio="xMidYMid meet">

<g transform="translate(0.000000,2000.000000) scale(0.100000,-0.100000)"
fill="#000000" stroke="none">
<path d="M5749 19141 c-124 -26 -243 -86 -329 -168 -117 -110 -178 -218 -214
-376 -14 -61 -16 -755 -16 -6832 0 -6065 2 -6771 15 -6832 50 -219 173 -383
360 -482 115 -61 183 -76 350 -76 126 1 161 4 220 23 99 31 195 88 305 180 53
44 530 522 1060 1063 530 541 1196 1218 1480 1504 283 286 643 650 799 808
155 159 288 287 295 285 7 -2 352 -348 767 -770 2184 -2223 2762 -2808 2820
-2859 172 -149 291 -211 440 -230 254 -31 464 31 626 185 90 84 144 170 186
289 l32 92 0 3190 0 3190 -27 85 c-69 214 -230 385 -430 456 -286 101 -610 18
-795 -205 -66 -81 -117 -181 -143 -285 -20 -78 -20 -113 -20 -2313 0 -2056 -1
-2234 -16 -2240 -12 -4 -41 19 -103 83 -47 49 -216 224 -376 389 -159 165
-458 473 -665 685 -360 369 -632 649 -1285 1325 -165 171 -337 345 -383 387
-224 209 -387 276 -641 265 -207 -8 -331 -59 -503 -207 -57 -49 -733 -726
-1503 -1505 -770 -779 -1408 -1421 -1418 -1426 -12 -7 -19 -6 -22 3 -3 7 -4
1395 -3 3083 l3 3070 2800 5 2800 6 125 22 c219 37 346 68 520 125 104 34 243
88 277 106 10 6 68 34 128 64 327 160 656 408 903 679 270 297 471 626 628
1028 33 86 91 296 128 465 53 241 69 720 33 975 -40 278 -92 487 -177 710 -12
30 -27 71 -35 92 -35 94 -193 388 -280 517 -306 462 -706 814 -1215 1071 -135
68 -348 153 -470 187 -30 8 -77 21 -104 29 -94 26 -301 66 -431 82 -117 14
-439 16 -3270 18 -2966 2 -3145 1 -3226 -15z m6371 -1359 c30 -7 89 -20 130
-28 241 -50 490 -172 690 -339 199 -167 367 -394 472 -640 43 -99 101 -298
123 -424 26 -142 23 -438 -5 -596 -107 -595 -495 -1082 -1032 -1299 -90 -36
-150 -53 -303 -89 -90 -21 -98 -21 -2818 -24 -1899 -2 -2734 0 -2747 7 -20 11
-20 29 -20 1718 0 1329 3 1711 12 1720 18 18 5418 11 5498 -6z"/>
<path d="M15666 14184 c-310 -69 -553 -306 -637 -619 -31 -115 -31 -299 -1
-412 42 -158 112 -280 224 -391 112 -112 251 -191 404 -229 103 -25 296 -22
399 6 314 84 542 317 616 628 18 74 20 110 17 223 -4 118 -9 147 -37 230 -44
131 -110 237 -207 334 -97 97 -203 163 -334 207 -86 29 -109 33 -235 35 -100
3 -160 -1 -209 -12z"/>
<path d="M5100 3270 l0 -220 220 0 220 0 0 220 0 220 -220 0 -220 0 0 -220z"/>
<path d="M13670 2390 l0 -1100 658 0 c713 0 723 1 817 55 61 36 142 126 173
192 l27 58 0 525 0 525 -27 58 c-55 117 -178 213 -302 236 -37 7 -221 11 -483
11 l-423 0 0 270 0 270 -220 0 -220 0 0 -1100z m1250 -270 l0 -390 -405 0
-405 0 0 390 0 390 405 0 405 0 0 -390z"/>
<path d="M16700 3270 l0 -220 220 0 220 0 0 220 0 220 -220 0 -220 0 0 -220z"/>
<path d="M18800 3220 l0 -270 -423 0 c-262 0 -446 -4 -483 -11 -124 -23 -241
-115 -301 -237 l-28 -57 0 -525 0 -525 27 -58 c31 -66 112 -156 173 -192 94
-54 104 -55 817 -55 l658 0 0 1100 0 1100 -220 0 -220 0 0 -270z m0 -1100 l0
-390 -400 0 -400 0 0 390 0 390 400 0 400 0 0 -390z"/>
<path d="M775 2938 c-3 -7 -4 -528 -3 -1158 l3 -1145 218 -3 217 -2 0 330 0
330 438 0 c474 0 508 3 597 55 61 36 142 126 173 192 l27 58 0 525 0 525 -27
58 c-55 117 -178 213 -302 236 -91 17 -1335 15 -1341 -1z m1245 -818 l0 -390
-405 0 -405 0 0 390 0 390 405 0 405 0 0 -390z"/>
<path d="M3220 2939 c-115 -23 -238 -120 -295 -234 l-30 -60 0 -525 0 -525 28
-57 c44 -89 116 -161 205 -205 l76 -38 495 -3 c441 -3 503 -1 559 14 155 41
276 175 302 335 13 81 13 873 0 952 -27 168 -163 311 -328 346 -64 13 -944 13
-1012 0z m910 -819 l0 -390 -405 0 -405 0 0 390 0 390 405 0 405 0 0 -390z"/>
<path d="M5100 2120 l0 -830 220 0 220 0 -2 828 -3 827 -217 3 -218 2 0 -830z"/>
<path d="M6107 2943 c-4 -3 -7 -377 -7 -830 l0 -823 220 0 220 0 0 610 0 610
405 0 405 0 0 -610 0 -610 215 0 216 0 -3 678 -3 677 -27 58 c-55 117 -178
213 -302 236 -65 12 -1328 16 -1339 4z"/>
<path d="M8294 2888 c17 -45 501 -1276 623 -1586 4 -9 44 -12 170 -10 l166 3
211 488 c116 268 213 487 216 487 3 0 104 -220 225 -488 l220 -487 167 -3
c151 -2 166 -1 173 15 22 58 615 1636 615 1639 0 3 -104 3 -231 2 l-231 -3
-162 -427 c-89 -235 -164 -430 -167 -432 -2 -3 -94 191 -203 430 l-199 434
-211 0 -211 0 -184 -425 c-102 -234 -187 -425 -190 -425 -4 0 -85 190 -182
423 l-175 422 -232 3 -232 2 24 -62z"/>
<path d="M11790 2939 c-115 -23 -238 -120 -295 -234 l-30 -60 0 -525 0 -525
28 -57 c44 -89 116 -161 205 -205 l76 -38 683 -3 683 -3 -2 218 -3 218 -622 3
-623 2 0 85 0 85 625 0 625 0 0 318 c0 174 -4 343 -10 375 -27 168 -163 311
-328 346 -64 13 -944 13 -1012 0z m910 -544 l0 -115 -405 0 -405 0 0 115 0
115 405 0 405 0 0 -115z"/>
<path d="M16700 2120 l0 -830 220 0 220 0 -2 828 -3 827 -217 3 -218 2 0 -830z"/>
<path d="M15807 1723 c-4 -3 -7 -102 -7 -220 l0 -213 220 0 220 0 0 220 0 220
-213 0 c-118 0 -217 -3 -220 -7z"/>
</g>
</svg>
