<?xml version="1.0" standalone="no"?>
<!DOCTYPE svg PUBLIC "-//W3C//DTD SVG 20010904//EN"
 "http://www.w3.org/TR/2001/REC-SVG-20010904/DTD/svg10.dtd">
<svg version="1.0" xmlns="http://www.w3.org/2000/svg"
 width="1555.000000pt" height="2000.000000pt" viewBox="0 0 1555.000000 2000.000000"
 preserveAspectRatio="xMidYMid meet">

<g transform="translate(0.000000,2000.000000) scale(0.100000,-0.100000)"
fill="#000000" stroke="none">
<path d="M2445 18320 c-230 -35 -433 -158 -557 -338 -49 -71 -96 -183 -118
-281 l-20 -91 0 -7608 0 -7608 20 -94 c14 -64 37 -129 71 -198 43 -87 65 -116
138 -190 94 -95 159 -138 284 -187 107 -43 231 -60 366 -51 139 9 179 19 286
70 202 96 147 43 2285 2221 1833 1867 2029 2065 2045 2065 7 0 39 -27 72 -61
32 -33 173 -177 313 -318 244 -247 443 -449 1120 -1140 168 -171 409 -416 535
-544 127 -128 614 -623 1084 -1100 470 -478 888 -899 930 -936 193 -169 326
-234 519 -253 242 -24 445 30 622 167 126 97 213 232 269 419 l21 69 0 3586 0
3586 -36 110 c-19 61 -45 126 -58 145 -13 19 -31 49 -41 65 -26 43 -122 141
-175 180 -110 80 -220 125 -369 150 -162 27 -314 3 -480 -77 -93 -44 -116 -61
-196 -142 -114 -113 -164 -196 -217 -361 -10 -32 -14 -537 -18 -2585 l-5
-2545 -20 -3 c-15 -2 -86 65 -280 265 -143 147 -606 626 -1030 1063 -423 437
-992 1024 -1264 1305 -272 280 -533 545 -580 589 -176 161 -309 243 -457 283
-96 25 -360 25 -454 0 -152 -41 -263 -107 -429 -252 -43 -38 -349 -345 -1066
-1071 -308 -311 -787 -796 -1065 -1077 -960 -972 -1109 -1119 -1125 -1113 -13
5 -15 408 -15 3454 0 2743 3 3452 13 3465 11 16 221 17 3162 20 l3150 2 130
23 c72 12 157 28 190 36 33 8 103 25 155 37 138 32 455 141 550 189 8 5 69 34
135 67 729 354 1317 975 1657 1747 38 87 47 111 97 256 28 79 63 201 85 295 9
39 23 99 31 134 46 194 69 481 62 775 -7 286 -26 432 -93 731 -50 221 -156
507 -282 755 -69 138 -102 194 -200 345 -241 369 -620 746 -992 987 -129 83
-341 208 -354 208 -2 0 -46 20 -98 44 -381 180 -816 288 -1273 316 -189 12
-6953 12 -7030 0z m7134 -1553 c206 -39 335 -77 478 -143 17 -8 34 -14 38 -14
9 0 110 -60 215 -129 430 -280 738 -763 830 -1304 29 -169 28 -495 0 -666 -94
-559 -423 -1055 -890 -1344 -186 -114 -430 -205 -645 -237 -128 -20 -176 -20
-3190 -18 l-3060 3 -3 1924 c-1 1426 1 1927 9 1938 10 11 490 13 3068 10 2878
-2 3061 -4 3150 -20z"/>
<path d="M13639 12740 c-383 -45 -703 -319 -811 -695 -20 -69 -23 -102 -23
-250 0 -190 14 -258 80 -401 233 -504 853 -703 1333 -427 264 152 422 392 478
725 18 106 18 108 -4 227 -41 224 -115 377 -253 525 -89 95 -169 153 -290 210
-109 52 -179 71 -304 86 -99 11 -110 11 -206 0z"/>
</g>
</svg>
